<svg width="184" height="44" viewBox="0 0 184 44" fill="none" xmlns="http://www.w3.org/2000/svg">
<path d="M19.8452 20.17V43.6673H15.5124L5.19011 28.8782H5.01634V43.6673H0V20.17H4.40233L14.6435 34.9476H14.8521V20.17H19.8452Z" fill="white"/>
<path d="M23.9898 43.6673V20.17H39.9772V24.266H29.0061V29.8649H39.1546V33.9609H29.0061V39.5713H40.0235V43.6673H23.9898Z" fill="white"/>
<path d="M58.6205 20.17H63.6368V35.4295C63.6368 37.1428 63.2236 38.642 62.3972 39.927C61.5785 41.212 60.4316 42.214 58.9564 42.933C57.4813 43.6443 55.7628 44 53.8011 44C51.8316 44 50.1093 43.6443 48.6341 42.933C47.159 42.214 46.012 41.212 45.1934 39.927C44.3747 38.642 43.9653 37.1428 43.9653 35.4295V20.17H48.9817V35.005C48.9817 35.8999 49.1786 36.6954 49.5725 37.3914C49.9741 38.0874 50.5379 38.6343 51.2639 39.0321C51.9899 39.4298 52.8356 39.6287 53.8011 39.6287C54.7742 39.6287 55.6199 39.4298 56.3382 39.0321C57.0642 38.6343 57.6241 38.0874 58.018 37.3914C58.4196 36.6954 58.6205 35.8999 58.6205 35.005V20.17Z" fill="white"/>
<path d="M67.764 43.6673V20.17H77.1247C78.9165 20.17 80.4458 20.4874 81.7124 21.1223C82.9868 21.7495 83.956 22.6406 84.6202 23.7956C85.2922 24.9429 85.6282 26.2929 85.6282 27.8456C85.6282 29.406 85.2883 30.7484 84.6087 31.8727C83.929 32.9895 82.9443 33.8462 81.6545 34.4428C80.3724 35.0394 78.82 35.3377 76.9973 35.3377H70.7297V31.345H76.1863C77.144 31.345 77.9395 31.215 78.5728 30.9549C79.2062 30.6948 79.6773 30.3047 79.9862 29.7846C80.3029 29.2645 80.4612 28.6182 80.4612 27.8456C80.4612 27.0654 80.3029 26.4076 79.9862 25.8722C79.6773 25.3368 79.2023 24.9314 78.5613 24.6561C77.9279 24.3731 77.1286 24.2316 76.1632 24.2316H72.7803V43.6673H67.764ZM80.5771 32.9742L86.4739 43.6673H80.9362L75.1668 32.9742H80.5771Z" fill="white"/>
<path d="M93.2627 43.6673H87.8872L96.0779 20.17H102.542L110.721 43.6673H105.346L99.4028 25.5395H99.2174L93.2627 43.6673ZM92.9267 34.4313H105.624V38.3093H92.9267V34.4313Z" fill="white"/>
<path d="M113.577 43.6673V20.17H118.593V39.5713H128.765V43.6673H113.577Z" fill="white"/>
<path d="M136.782 43.6673H131.407L139.597 20.17H146.062L154.241 43.6673H148.865L142.922 25.5395H142.737L136.782 43.6673ZM136.446 34.4313H149.143V38.3093H136.446V34.4313Z" fill="white"/>
<path d="M162.113 20.17V43.6673H157.096V20.17H162.113Z" fill="white"/>
<path d="M174.871 43.9885C173.141 43.9885 171.6 43.694 170.248 43.1051C168.905 42.5085 167.843 41.69 167.063 40.6498C166.29 39.6019 165.892 38.3934 165.869 37.0243H170.92C170.951 37.5979 171.14 38.1027 171.488 38.5387C171.843 38.9671 172.314 39.2998 172.901 39.5369C173.488 39.774 174.149 39.8926 174.882 39.8926C175.647 39.8926 176.323 39.7587 176.91 39.491C177.497 39.2233 177.956 38.8523 178.288 38.3781C178.621 37.9039 178.787 37.357 178.787 36.7374C178.787 36.1102 178.609 35.5557 178.254 35.0738C177.906 34.5843 177.404 34.2018 176.748 33.9265C176.099 33.6511 175.327 33.5134 174.431 33.5134H172.218V29.8649H174.431C175.188 29.8649 175.856 29.7349 176.435 29.4748C177.022 29.2148 177.477 28.8553 177.802 28.3963C178.126 27.9298 178.288 27.3867 178.288 26.7671C178.288 26.1782 178.146 25.6619 177.86 25.2183C177.582 24.767 177.188 24.4151 176.678 24.1627C176.176 23.9103 175.589 23.7841 174.917 23.7841C174.238 23.7841 173.616 23.9065 173.052 24.1512C172.488 24.3884 172.036 24.7287 171.697 25.1724C171.357 25.616 171.175 26.1361 171.152 26.7327H166.344C166.367 25.3789 166.757 24.1857 167.514 23.1531C168.271 22.1205 169.291 21.3135 170.573 20.7322C171.863 20.1432 173.318 19.8488 174.94 19.8488C176.578 19.8488 178.01 20.1432 179.238 20.7322C180.466 21.3212 181.42 22.1166 182.1 23.1186C182.787 24.113 183.127 25.2297 183.119 26.4688C183.127 27.7844 182.714 28.8821 181.88 29.7617C181.053 30.6413 179.976 31.1997 178.648 31.4368V31.6203C180.393 31.8422 181.721 32.4426 182.633 33.4216C183.552 34.393 184.008 35.6092 184 37.0701C184.008 38.4087 183.618 39.5981 182.83 40.6383C182.05 41.6786 180.972 42.497 179.598 43.0936C178.223 43.6902 176.647 43.9885 174.871 43.9885Z" fill="white"/>
<path d="M165.85 6.18409C165.85 9.59947 163.055 12.3682 159.606 12.3682C156.157 12.3682 153.362 9.59947 153.362 6.18409C153.362 2.76871 156.157 0 159.606 0C163.055 0 165.85 2.76871 165.85 6.18409Z" fill="white"/>
</svg>
